<svg width="1440" height="931" viewBox="0 0 1440 931" fill="none" xmlns="http://www.w3.org/2000/svg">
<rect y="900" width="31" height="31" fill="#F3F7FB"/>
<path d="M31 870.5C31 854.208 44.2076 841 60.5 841C76.7924 841 90 854.208 90 870.5C90 886.792 76.7924 900 60.5 900H31V870.5Z" fill="#45EC9C"/>
<rect x="741" y="750" width="47" height="47" fill="#CCFBFF"/>
<rect x="683" y="692" width="58" height="58" fill="#CCFBFF"/>
<path d="M547 189.5C547 203.031 557.969 214 571.5 214C585.031 214 596 203.031 596 189.5C596 175.969 585.031 165 571.5 165H547V189.5Z" fill="#FFC229"/>
<path d="M1456 7.5C1456 -6.03098 1445.03 -17 1431.5 -17C1417.97 -17 1407 -6.03098 1407 7.5C1407 21.031 1417.97 32 1431.5 32H1456V7.5Z" fill="#FFC229"/>
<path d="M1339 819.5C1339 835.792 1352.21 849 1368.5 849C1384.79 849 1398 835.792 1398 819.5C1398 803.208 1384.79 790 1368.5 790H1339V819.5Z" fill="#DEBBAF"/>
<rect x="654" y="467" width="29" height="29" fill="#D4CCC9"/>
<rect y="451" width="37" height="68" fill="#D7FCFF"/>
</svg>
